<mxfile host="app.diagrams.net" modified="2024-04-19T01:09:01.843Z" agent="Mozilla/5.0 (Windows NT 10.0; Win64; x64; rv:124.0) Gecko/20100101 Firefox/124.0" etag="treLzYL6UZSR4GNM34qG" version="24.2.5" type="github">
  <diagram name="第 1 页" id="1odDleKzKIrbYBjiixFl">
    <mxGraphModel dx="608" dy="745" grid="1" gridSize="10" guides="1" tooltips="1" connect="1" arrows="1" fold="1" page="1" pageScale="1" pageWidth="827" pageHeight="1169" math="0" shadow="0">
      <root>
        <mxCell id="0" />
        <mxCell id="1" parent="0" />
        <mxCell id="ib88aiVqJiSz8_Cnnz4W-5" value="User" style="swimlane;fontStyle=0;childLayout=stackLayout;horizontal=1;startSize=26;fillColor=none;horizontalStack=0;resizeParent=1;resizeParentMax=0;resizeLast=0;collapsible=1;marginBottom=0;whiteSpace=wrap;html=1;" vertex="1" parent="1">
          <mxGeometry x="40" y="40" width="140" height="194" as="geometry" />
        </mxCell>
        <mxCell id="ib88aiVqJiSz8_Cnnz4W-6" value="+ Uid:str" style="text;strokeColor=none;fillColor=none;align=left;verticalAlign=top;spacingLeft=4;spacingRight=4;overflow=hidden;rotatable=0;points=[[0,0.5],[1,0.5]];portConstraint=eastwest;whiteSpace=wrap;html=1;" vertex="1" parent="ib88aiVqJiSz8_Cnnz4W-5">
          <mxGeometry y="26" width="140" height="26" as="geometry" />
        </mxCell>
        <mxCell id="ib88aiVqJiSz8_Cnnz4W-7" value="+ Desc:str" style="text;strokeColor=none;fillColor=none;align=left;verticalAlign=top;spacingLeft=4;spacingRight=4;overflow=hidden;rotatable=0;points=[[0,0.5],[1,0.5]];portConstraint=eastwest;whiteSpace=wrap;html=1;" vertex="1" parent="ib88aiVqJiSz8_Cnnz4W-5">
          <mxGeometry y="52" width="140" height="26" as="geometry" />
        </mxCell>
        <mxCell id="ib88aiVqJiSz8_Cnnz4W-8" value="+ Admin:bool" style="text;strokeColor=none;fillColor=none;align=left;verticalAlign=top;spacingLeft=4;spacingRight=4;overflow=hidden;rotatable=0;points=[[0,0.5],[1,0.5]];portConstraint=eastwest;whiteSpace=wrap;html=1;" vertex="1" parent="ib88aiVqJiSz8_Cnnz4W-5">
          <mxGeometry y="78" width="140" height="26" as="geometry" />
        </mxCell>
        <mxCell id="ib88aiVqJiSz8_Cnnz4W-9" value="+ Email:str" style="text;whiteSpace=wrap;html=1;fontFamily=Helvetica;fontSize=12;fontColor=default;spacingLeft=4;" vertex="1" parent="ib88aiVqJiSz8_Cnnz4W-5">
          <mxGeometry y="104" width="140" height="30" as="geometry" />
        </mxCell>
        <mxCell id="ib88aiVqJiSz8_Cnnz4W-10" value="+ Sex:int" style="text;whiteSpace=wrap;html=1;fontFamily=Helvetica;fontSize=12;fontColor=default;spacingLeft=4;" vertex="1" parent="ib88aiVqJiSz8_Cnnz4W-5">
          <mxGeometry y="134" width="140" height="30" as="geometry" />
        </mxCell>
        <mxCell id="ib88aiVqJiSz8_Cnnz4W-11" value="+ PMIgnoreUser:str[]" style="text;whiteSpace=wrap;html=1;fontFamily=Helvetica;fontSize=12;fontColor=default;spacingLeft=4;" vertex="1" parent="ib88aiVqJiSz8_Cnnz4W-5">
          <mxGeometry y="164" width="140" height="30" as="geometry" />
        </mxCell>
        <mxCell id="ib88aiVqJiSz8_Cnnz4W-24" style="edgeStyle=orthogonalEdgeStyle;rounded=0;orthogonalLoop=1;jettySize=auto;html=1;endArrow=diamondThin;endFill=0;" edge="1" parent="1" source="ib88aiVqJiSz8_Cnnz4W-12" target="ib88aiVqJiSz8_Cnnz4W-5">
          <mxGeometry relative="1" as="geometry" />
        </mxCell>
        <mxCell id="ib88aiVqJiSz8_Cnnz4W-12" value="JoinRequest" style="swimlane;fontStyle=0;childLayout=stackLayout;horizontal=1;startSize=26;fillColor=none;horizontalStack=0;resizeParent=1;resizeParentMax=0;resizeLast=0;collapsible=1;marginBottom=0;whiteSpace=wrap;html=1;" vertex="1" parent="1">
          <mxGeometry x="25" y="310" width="170" height="194" as="geometry" />
        </mxCell>
        <mxCell id="ib88aiVqJiSz8_Cnnz4W-13" value="+ Pid:str" style="text;strokeColor=none;fillColor=none;align=left;verticalAlign=top;spacingLeft=4;spacingRight=4;overflow=hidden;rotatable=0;points=[[0,0.5],[1,0.5]];portConstraint=eastwest;whiteSpace=wrap;html=1;" vertex="1" parent="ib88aiVqJiSz8_Cnnz4W-12">
          <mxGeometry y="26" width="170" height="26" as="geometry" />
        </mxCell>
        <mxCell id="ib88aiVqJiSz8_Cnnz4W-14" value="+ Desc:str" style="text;strokeColor=none;fillColor=none;align=left;verticalAlign=top;spacingLeft=4;spacingRight=4;overflow=hidden;rotatable=0;points=[[0,0.5],[1,0.5]];portConstraint=eastwest;whiteSpace=wrap;html=1;" vertex="1" parent="ib88aiVqJiSz8_Cnnz4W-12">
          <mxGeometry y="52" width="170" height="26" as="geometry" />
        </mxCell>
        <mxCell id="ib88aiVqJiSz8_Cnnz4W-15" value="+ Date:timestamp" style="text;strokeColor=none;fillColor=none;align=left;verticalAlign=top;spacingLeft=4;spacingRight=4;overflow=hidden;rotatable=0;points=[[0,0.5],[1,0.5]];portConstraint=eastwest;whiteSpace=wrap;html=1;" vertex="1" parent="ib88aiVqJiSz8_Cnnz4W-12">
          <mxGeometry y="78" width="170" height="26" as="geometry" />
        </mxCell>
        <mxCell id="ib88aiVqJiSz8_Cnnz4W-16" value="+ Status:enum" style="text;whiteSpace=wrap;html=1;fontFamily=Helvetica;fontSize=12;fontColor=default;spacingLeft=4;" vertex="1" parent="ib88aiVqJiSz8_Cnnz4W-12">
          <mxGeometry y="104" width="170" height="30" as="geometry" />
        </mxCell>
        <mxCell id="ib88aiVqJiSz8_Cnnz4W-18" value="+ AuditorUid:str" style="text;whiteSpace=wrap;html=1;fontFamily=Helvetica;fontSize=12;fontColor=default;spacingLeft=4;" vertex="1" parent="ib88aiVqJiSz8_Cnnz4W-12">
          <mxGeometry y="134" width="170" height="30" as="geometry" />
        </mxCell>
        <mxCell id="ib88aiVqJiSz8_Cnnz4W-17" value="+ DisapproveReason:str" style="text;whiteSpace=wrap;html=1;fontFamily=Helvetica;fontSize=12;fontColor=default;spacingLeft=4;" vertex="1" parent="ib88aiVqJiSz8_Cnnz4W-12">
          <mxGeometry y="164" width="170" height="30" as="geometry" />
        </mxCell>
        <mxCell id="ib88aiVqJiSz8_Cnnz4W-26" style="edgeStyle=orthogonalEdgeStyle;rounded=0;orthogonalLoop=1;jettySize=auto;html=1;endArrow=none;endFill=0;" edge="1" parent="1" source="ib88aiVqJiSz8_Cnnz4W-19" target="ib88aiVqJiSz8_Cnnz4W-5">
          <mxGeometry relative="1" as="geometry" />
        </mxCell>
        <mxCell id="ib88aiVqJiSz8_Cnnz4W-19" value="PermissionGroup" style="swimlane;fontStyle=0;childLayout=stackLayout;horizontal=1;startSize=26;fillColor=none;horizontalStack=0;resizeParent=1;resizeParentMax=0;resizeLast=0;collapsible=1;marginBottom=0;whiteSpace=wrap;html=1;" vertex="1" parent="1">
          <mxGeometry x="270" y="70" width="210" height="134" as="geometry" />
        </mxCell>
        <mxCell id="ib88aiVqJiSz8_Cnnz4W-20" value="+ GroupName:str" style="text;strokeColor=none;fillColor=none;align=left;verticalAlign=top;spacingLeft=4;spacingRight=4;overflow=hidden;rotatable=0;points=[[0,0.5],[1,0.5]];portConstraint=eastwest;whiteSpace=wrap;html=1;" vertex="1" parent="ib88aiVqJiSz8_Cnnz4W-19">
          <mxGeometry y="26" width="210" height="26" as="geometry" />
        </mxCell>
        <mxCell id="ib88aiVqJiSz8_Cnnz4W-21" value="+ AllowCreateProject:bool" style="text;strokeColor=none;fillColor=none;align=left;verticalAlign=top;spacingLeft=4;spacingRight=4;overflow=hidden;rotatable=0;points=[[0,0.5],[1,0.5]];portConstraint=eastwest;whiteSpace=wrap;html=1;" vertex="1" parent="ib88aiVqJiSz8_Cnnz4W-19">
          <mxGeometry y="52" width="210" height="26" as="geometry" />
        </mxCell>
        <mxCell id="ib88aiVqJiSz8_Cnnz4W-22" value="+ AllowCreatePrivateProject:bool" style="text;strokeColor=none;fillColor=none;align=left;verticalAlign=top;spacingLeft=4;spacingRight=4;overflow=hidden;rotatable=0;points=[[0,0.5],[1,0.5]];portConstraint=eastwest;whiteSpace=wrap;html=1;" vertex="1" parent="ib88aiVqJiSz8_Cnnz4W-19">
          <mxGeometry y="78" width="210" height="26" as="geometry" />
        </mxCell>
        <mxCell id="ib88aiVqJiSz8_Cnnz4W-23" value="+ AllowJoinProject:bool" style="text;whiteSpace=wrap;html=1;fontFamily=Helvetica;fontSize=12;fontColor=default;spacingLeft=4;" vertex="1" parent="ib88aiVqJiSz8_Cnnz4W-19">
          <mxGeometry y="104" width="210" height="30" as="geometry" />
        </mxCell>
        <mxCell id="ib88aiVqJiSz8_Cnnz4W-27" value="1" style="text;html=1;align=center;verticalAlign=middle;resizable=0;points=[];autosize=1;strokeColor=none;fillColor=none;" vertex="1" parent="1">
          <mxGeometry x="112" y="234" width="30" height="30" as="geometry" />
        </mxCell>
        <mxCell id="ib88aiVqJiSz8_Cnnz4W-28" value="0..n" style="text;html=1;align=center;verticalAlign=middle;resizable=0;points=[];autosize=1;strokeColor=none;fillColor=none;" vertex="1" parent="1">
          <mxGeometry x="111" y="280" width="40" height="30" as="geometry" />
        </mxCell>
        <mxCell id="ib88aiVqJiSz8_Cnnz4W-29" value="1" style="text;html=1;align=center;verticalAlign=middle;resizable=0;points=[];autosize=1;strokeColor=none;fillColor=none;" vertex="1" parent="1">
          <mxGeometry x="179" y="106" width="30" height="30" as="geometry" />
        </mxCell>
        <mxCell id="ib88aiVqJiSz8_Cnnz4W-30" value="1" style="text;html=1;align=center;verticalAlign=middle;resizable=0;points=[];autosize=1;strokeColor=none;fillColor=none;" vertex="1" parent="1">
          <mxGeometry x="239" y="106" width="30" height="30" as="geometry" />
        </mxCell>
      </root>
    </mxGraphModel>
  </diagram>
</mxfile>
